# File created by Blade
# Date/Time:  Tue Apr 07 21:33:03 2015
# Frame Rate: 120.000 fps
#------------------------------------------------------
:FULLY-SPECIFIED
:DEGREES
474
root 36.803843 32.057171 -19.436065 16.907654 -65.122741 1.219370
Spine -6.615153 -4.084944 0.449556
Head 16.827627 -5.898195 -0.561939
LeftShoulder -16.761863 44.962075 7.015079
LeftArm 52.972905 12.763673 -79.185207
LeftForeArm -3.871652 -0.000000 22.193176
LeftHand 6.216192 -0.000000 -6.602145
LeftHandThumb1 -26.253704 0.000000 33.147579
RightShoulder -3.324078 -6.171194 -18.775584
RightArm 15.441104 -12.126832 86.979795
RightForeArm 1.642059 -0.000000 31.107189
RightHand 6.360142 -0.000000 4.101835
RightHandThumb1 -24.326973 -0.000000 -32.862282
LeftUpLeg -33.633720 -7.516979 4.238919
LeftLeg 31.430049 -0.000000 -0.000000
LeftFoot -18.980709 7.337095 -21.094015
LeftToeBase -10.831110 -0.000000 0.000000
RightUpLeg -19.697060 0.467057 4.474621
RightLeg 13.499937 -0.000000 -0.000000
RightFoot -14.222512 -13.573686 13.599335
RightToeBase -9.530283 -0.000000 0.000000
475
root 36.838475 32.067010 -19.478543 16.730205 -65.055400 1.323307
Spine -6.747361 -4.067289 0.500289
Head 16.832206 -5.907546 -0.593810
LeftShoulder -16.747481 44.975093 7.000928
LeftArm 52.980045 13.063531 -79.016445
LeftForeArm -3.741795 0.000000 22.047655
LeftHand 6.046304 0.000000 -6.812835
LeftHandThumb1 -26.253704 0.000000 33.147579
RightShoulder -3.313650 -6.240844 -18.839662
RightArm 15.387405 -12.155446 86.973473
RightForeArm 1.810182 -0.000000 30.992624
RightHand 6.418928 -0.000000 3.978431
RightHandThumb1 -24.326973 -0.000000 -32.862282
LeftUpLeg -33.325839 -7.419483 3.895351
LeftLeg 32.135726 -0.000000 -0.000000
LeftFoot -19.141402 7.100310 -21.228163
LeftToeBase -11.128307 -0.000000 0.000000
RightUpLeg -19.680863 0.375762 4.426768
RightLeg 13.528432 -0.000000 -0.000000
RightFoot -14.399301 -13.136292 14.208885
RightToeBase -8.985174 -0.000000 0.000000
476
root 36.854531 32.074249 -19.519994 16.768089 -64.902502 1.116056
Spine -6.856755 -4.112438 0.727328
Head 16.875220 -5.864509 -0.678926
LeftShoulder -16.765646 45.054989 6.908822
LeftArm 52.989579 13.297886 -78.876777
LeftForeArm -3.647634 -0.000000 21.905772
LeftHand 6.015459 -0.000000 -7.001657
LeftHandThumb1 -26.253704 0.000000 33.147579
RightShoulder -3.304156 -6.338843 -18.896006
RightArm 15.336679 -12.226967 86.930245
RightForeArm 1.843679 0.000000 30.867213
RightHand 6.323951 -0.000000 4.258536
RightHandThumb1 -24.326973 -0.000000 -32.862282
LeftUpLeg -32.900924 -7.356819 3.700923
LeftLeg 32.810249 -0.000000 -0.000000
LeftFoot -19.358892 6.798653 -21.556706
LeftToeBase -11.343776 -0.000000 0.000000
RightUpLeg -19.539327 0.062399 4.588558
RightLeg 13.476988 -0.000000 -0.000000
RightFoot -14.444751 -12.571613 14.636368
RightToeBase -8.655215 -0.000000 0.000000
477
root 36.881653 32.080377 -19.561252 16.707291 -64.844859 1.079726
Spine -6.990173 -4.084683 0.832918
Head 16.865152 -5.842544 -0.708875
LeftShoulder -16.759591 45.040871 6.882926
LeftArm 52.918665 13.508825 -78.798828
LeftForeArm -3.441038 -0.000000 21.769441
LeftHand 5.928644 0.000000 -7.302464
LeftHandThumb1 -26.253704 0.000000 33.147579
RightShoulder -3.313553 -6.446665 -18.928235
RightArm 15.309286 -12.280376 86.896307
RightForeArm 1.898467 0.000000 30.749959
RightHand 6.301478 0.000000 4.419372
RightHandThumb1 -24.326973 -0.000000 -32.862282
LeftUpLeg -32.540788 -7.265237 3.449856
LeftLeg 33.468408 -0.000000 -0.000000
LeftFoot -19.451770 6.422936 -21.931212
LeftToeBase -11.522112 -0.000000 0.000000
RightUpLeg -19.462433 -0.103319 4.632134
RightLeg 13.405427 -0.000000 -0.000000
RightFoot -14.517762 -12.102783 15.077168
RightToeBase -8.303553 -0.000000 0.000000
478
root 36.901341 32.084217 -19.590481 16.338840 -64.942925 1.259827
Spine -7.019731 -3.943439 0.773290
Head 16.871913 -5.839159 -0.706506
LeftShoulder -16.764440 45.110058 6.828103
LeftArm 52.917182 13.681937 -78.667823
LeftForeArm -3.380738 -0.000000 21.645771
LeftHand 5.903920 -0.000000 -7.430791
LeftHandThumb1 -26.253704 0.000000 33.147579
RightShoulder -3.309498 -6.571984 -18.913160
RightArm 15.276920 -12.318877 86.854686
RightForeArm 1.965038 -0.000000 30.634245
RightHand 6.319724 -0.000000 4.437117
RightHandThumb1 -24.326973 -0.000000 -32.862282
LeftUpLeg -31.957096 -7.147597 3.073431
LeftLeg 34.038111 -0.000000 -0.000000
LeftFoot -19.442461 5.995155 -22.159203
LeftToeBase -11.867236 -0.000000 0.000000
RightUpLeg -19.222278 -0.184266 4.548715
RightLeg 13.268986 -0.000000 -0.000000
RightFoot -14.628425 -11.664551 15.448821
RightToeBase -7.891924 -0.000000 0.000000
479
root 36.919700 32.083831 -19.608116 15.916235 -65.123028 1.514454
Spine -7.088604 -3.775344 0.696927
Head 16.887446 -5.747584 -0.745780
LeftShoulder -16.834608 45.200685 6.708391
LeftArm 52.889378 13.787798 -78.629330
LeftForeArm -3.267123 -0.000000 21.508678
LeftHand 5.799840 -0.000000 -7.559741
LeftHandThumb1 -26.253704 0.000000 33.147579
RightShoulder -3.278369 -6.680996 -18.931535
RightArm 15.230079 -12.393779 86.802486
RightForeArm 2.052820 0.000000 30.499141
RightHand 6.318192 -0.000000 4.340322
RightHandThumb1 -24.326973 -0.000000 -32.862282
LeftUpLeg -31.342444 -6.989333 2.621848
LeftLeg 34.530546 -0.000000 -0.000000
LeftFoot -19.593538 5.817367 -22.375598
LeftToeBase -11.409488 -0.000000 0.000000
RightUpLeg -19.002025 -0.365183 4.445548
RightLeg 13.159470 -0.000000 -0.000000
RightFoot -14.753839 -11.104954 15.703480
RightToeBase -7.496003 -0.000000 0.000000
480
root 36.941261 32.081445 -19.642885 15.873109 -65.144179 1.438538
Spine -7.212242 -3.708868 0.802510
Head 16.849218 -5.684955 -0.803900
LeftShoulder -16.824958 45.193341 6.673133
LeftArm 52.745589 13.880218 -78.635624
LeftForeArm -3.208412 -0.000000 21.404647
LeftHand 5.765269 -0.000000 -7.720720
LeftHandThumb1 -26.253704 0.000000 33.147579
RightShoulder -3.282129 -6.760568 -18.956175
RightArm 15.173001 -12.476864 86.778742
RightForeArm 2.096658 0.000000 30.354973
RightHand 6.338859 -0.000000 4.464602
RightHandThumb1 -24.326973 -0.000000 -32.862282
LeftUpLeg -30.869315 -6.869806 2.396239
LeftLeg 35.053737 -0.000000 -0.000000
LeftFoot -19.627006 5.369261 -22.682391
LeftToeBase -11.270625 -0.000000 0.000000
RightUpLeg -18.779869 -0.485386 4.528111
RightLeg 12.835261 -0.000000 -0.000000
RightFoot -14.919670 -10.789589 16.134116
RightToeBase -6.904066 -0.000000 0.000000
481
root 36.957531 32.078763 -19.683481 15.974328 -65.138917 1.230062
Spine -7.368559 -3.645924 0.946153
Head 16.816324 -5.641548 -0.825606
LeftShoulder -16.873894 45.282879 6.573999
LeftArm 52.731528 13.959933 -78.545085
LeftForeArm -3.198029 -0.000000 21.281013
LeftHand 5.688096 -0.000000 -7.770237
LeftHandThumb1 -26.253704 0.000000 33.147579
RightShoulder -3.316806 -6.884069 -18.933219
RightArm 15.152370 -12.553316 86.734707
RightForeArm 2.119386 0.000000 30.204746
RightHand 6.344686 -0.000000 4.473366
RightHandThumb1 -24.326973 -0.000000 -32.862282
LeftUpLeg -30.425578 -6.779172 2.257526
LeftLeg 35.588320 -0.000000 -0.000000
LeftFoot -19.723793 4.812589 -23.171688
LeftToeBase -10.967838 -0.000000 0.000000
RightUpLeg -18.485008 -0.411233 4.647977
RightLeg 12.310254 -0.000000 -0.000000
RightFoot -14.908615 -10.819586 16.194283
RightToeBase -7.390115 -0.000000 0.000000
482
root 36.975566 32.074959 -19.723504 16.202831 -65.141835 0.898521
Spine -7.530647 -3.616724 1.166537
Head 16.762053 -5.546242 -0.892108
LeftShoulder -16.979124 45.386221 6.420295
LeftArm 52.694127 13.964525 -78.561087
LeftForeArm -3.168810 -0.000000 21.145786
LeftHand 5.725162 -0.000000 -7.956620
LeftHandThumb1 -26.253704 0.000000 33.147579
RightShoulder -3.296881 -6.950832 -18.925533
RightArm 15.082578 -12.602334 86.699852
RightForeArm 2.128632 -0.000000 30.066672
RightHand 6.335557 -0.000000 4.630365
RightHandThumb1 -24.326973 -0.000000 -32.862282
LeftUpLeg -29.984324 -6.727577 2.209035
LeftLeg 36.076688 -0.000000 -0.000000
LeftFoot -19.633610 4.552359 -23.082595
LeftToeBase -11.304186 -0.000000 0.000000
RightUpLeg -18.236447 -0.389045 4.828502
RightLeg 11.890327 -0.000000 -0.000000
RightFoot -14.866266 -10.736425 16.351355
RightToeBase -6.731347 -0.000000 0.000000
483
root 36.995479 32.070425 -19.763206 16.421432 -65.138301 0.580663
Spine -7.683701 -3.585889 1.368512
Head 16.677126 -5.443402 -0.918045
LeftShoulder -17.014528 45.425071 6.326190
LeftArm 52.589674 13.979042 -78.561287
LeftForeArm -3.262216 -0.000000 21.032565
LeftHand 5.651754 -0.000000 -7.820869
LeftHandThumb1 -26.253704 0.000000 33.147579
RightShoulder -3.267052 -7.056837 -18.888758
RightArm 15.025517 -12.605544 86.651808
RightForeArm 2.020740 -0.000000 29.967547
RightHand 6.306731 -0.000000 4.707269
RightHandThumb1 -24.326973 -0.000000 -32.862282
LeftUpLeg -29.553069 -6.703075 2.176042
LeftLeg 36.520760 -0.000000 -0.000000
LeftFoot -19.588634 4.181055 -23.391768
LeftToeBase -11.433529 -0.000000 0.000000
RightUpLeg -17.990646 -0.394598 5.007081
RightLeg 11.459410 -0.000000 -0.000000
RightFoot -14.918604 -10.611801 16.632171
RightToeBase -6.158096 -0.000000 0.000000
484
root 37.008786 32.065458 -19.803071 16.642473 -65.084258 0.259567
Spine -7.861627 -3.644553 1.575487
Head 16.654383 -5.342369 -0.930776
LeftShoulder -17.132905 45.525239 6.160680
LeftArm 52.535544 14.022869 -78.393998
LeftForeArm -3.327983 -0.000000 20.956250
LeftHand 5.542092 -0.000000 -7.673968
LeftHandThumb1 -26.253704 0.000000 33.147579
RightShoulder -3.226507 -7.146384 -18.815839
RightArm 14.976270 -12.637596 86.586988
RightForeArm 2.043289 -0.000000 29.813211
RightHand 6.260734 0.000000 4.833050
RightHandThumb1 -24.326973 -0.000000 -32.862282
LeftUpLeg -29.113029 -6.595060 2.120969
LeftLeg 36.910295 -0.000000 -0.000000
LeftFoot -19.578076 3.793743 -23.729930
LeftToeBase -11.277477 -0.000000 0.000000
RightUpLeg -17.755155 -0.574891 5.228416
RightLeg 11.069902 -0.000000 -0.000000
RightFoot -14.951025 -10.354296 16.898581
RightToeBase -5.743477 -0.000000 0.000000
